<svg xmlns="http://www.w3.org/2000/svg" width="400" height="400" viewBox="0 0 400 400">
  <rect width="400" height="400" fill="none"/>


  <!-- Small stars -->
  <g fill="#FF0000" opacity="0.5" filter="url(#chromaticAberration)">
    <circle cx="30" cy="30" r="1" />
    <circle cx="70" cy="50" r="1" />
    <circle cx="150" cy="30" r="1" />
    <circle cx="200" cy="70" r="1" />
    <circle cx="250" cy="20" r="1" />
    <circle cx="300" cy="60" r="1" />
    <circle cx="350" cy="30" r="1" />
    <circle cx="380" cy="80" r="1" />

    <circle cx="20" cy="120" r="1" />
    <circle cx="80" cy="150" r="1" />
    <circle cx="140" cy="100" r="1" />
    <circle cx="190" cy="130" r="1" />
    <circle cx="240" cy="110" r="1" />
    <circle cx="290" cy="140" r="1" />
    <circle cx="340" cy="120" r="1" />
    <circle cx="390" cy="160" r="1" />

    <circle cx="40" cy="200" r="1" />
    <circle cx="90" cy="230" r="1" />
    <circle cx="130" cy="210" r="1" />
    <circle cx="180" cy="240" r="1" />
    <circle cx="230" cy="200" r="1" />
    <circle cx="280" cy="230" r="1" />
    <circle cx="330" cy="210" r="1" />
    <circle cx="370" cy="240" r="1" />

    <circle cx="30" cy="280" r="1" />
    <circle cx="70" cy="310" r="1" />
    <circle cx="120" cy="290" r="1" />
    <circle cx="170" cy="320" r="1" />
    <circle cx="220" cy="280" r="1" />
    <circle cx="270" cy="310" r="1" />
    <circle cx="320" cy="290" r="1" />
    <circle cx="360" cy="320" r="1" />

    <circle cx="50" cy="360" r="1" />
    <circle cx="100" cy="390" r="1" />
    <circle cx="150" cy="370" r="1" />
    <circle cx="200" cy="380" r="1" />
    <circle cx="250" cy="360" r="1" />
    <circle cx="300" cy="390" r="1" />
    <circle cx="350" cy="370" r="1" />
  </g>

  <!-- Medium stars -->
  <g fill="#FF0000" opacity="0.7" filter="url(#chromaticAberration)">
    <circle cx="50" cy="40" r="1.5" />
    <circle cx="120" cy="60" r="1.5" />
    <circle cx="220" cy="50" r="1.5" />
    <circle cx="320" cy="40" r="1.5" />

    <circle cx="60" cy="130" r="1.5" />
    <circle cx="160" cy="150" r="1.5" />
    <circle cx="260" cy="130" r="1.5" />
    <circle cx="360" cy="150" r="1.5" />

    <circle cx="70" cy="220" r="1.5" />
    <circle cx="170" cy="200" r="1.5" />
    <circle cx="270" cy="220" r="1.5" />
    <circle cx="350" cy="200" r="1.5" />

    <circle cx="40" cy="300" r="1.5" />
    <circle cx="140" cy="320" r="1.5" />
    <circle cx="240" cy="300" r="1.5" />
    <circle cx="340" cy="320" r="1.5" />
  </g>

  <!-- Large stars -->
  <g fill="#FF0000" filter="url(#chromaticAberration)">
    <circle cx="100" cy="80" r="2" />
    <circle cx="300" cy="90" r="2" />
    <circle cx="80" cy="180" r="2" />
    <circle cx="280" cy="190" r="2" />
    <circle cx="120" cy="260" r="2" />
    <circle cx="320" cy="250" r="2" />
    <circle cx="90" cy="350" r="2" />
    <circle cx="290" cy="340" r="2" />
  </g>

  <!-- Special stars with glow -->
  <g filter="url(#chromaticAberration)">
    <circle cx="180" cy="100" r="2" fill="#FF0000" />
    <circle cx="180" cy="100" r="4" fill="none" stroke="#FF0000" stroke-width="0.5" opacity="0.3" />

    <circle cx="380" cy="200" r="2" fill="#FF0000" />
    <circle cx="380" cy="200" r="4" fill="none" stroke="#FF0000" stroke-width="0.5" opacity="0.3" />

    <circle cx="150" cy="300" r="2" fill="#FF0000" />
    <circle cx="150" cy="300" r="4" fill="none" stroke="#FF0000" stroke-width="0.5" opacity="0.3" />

    <circle cx="350" cy="350" r="2" fill="#FF0000" />
    <circle cx="350" cy="350" r="4" fill="none" stroke="#FF0000" stroke-width="0.5" opacity="0.3" />
  </g>
</svg>
